# xmcd
#
# Track frame offsets:
#	150
#	21200
#	48976
#	69141
#	90918
#	125212
#	143790
#	166941
#	198153
#	221146
#	239613
# Disc length: 3661 seconds
# Revision: 1
# Processed by: cddbd v1.5.1PL2 Copyright (c) Steve Scherf et al.
#
# Submitted via: libkcddb 0.31
#
DISCID=970e4b0b
DTITLE=HOBO BLUES BAND - PLATINA
DYEAR=2005
DGENRE=Blues
TTITLE0=A HAROM TESTOR
TTITLE1=8 PERCES SZERELEM
TTITLE2=BARBIE BABA BLUES
TTITLE3=AZ UT VADABB FELEN
TTITLE4=HU ASSZONY BLUES
TTITLE5=HIBAS A TERKEP
TTITLE6=VISSZA A 66-OS UTON
TTITLE7=VIDEKI ANGYAL
TTITLE8=CHICAGO VAR
TTITLE9=R'N'R RADIO
TTITLE10=NEM LEHET KET HAZAD
EXTD=
EXTT0=
EXTT1=
EXTT2=
EXTT3=
EXTT4=
EXTT5=
EXTT6=
EXTT7=
EXTT8=
EXTT9=
EXTT10=
PLAYORDER=
